<svg width="1600" height="395" viewBox="0 0 1600 395" fill="none" xmlns="http://www.w3.org/2000/svg">
<path d="M1.57422 299.418C9.0054 285.413 23.2528 246.247 20.7928 201.632C17.317 138.594 69.2236 20.839 195.298 11.4087C321.371 1.97844 393.65 100.08 401.645 164.532C409.641 228.984 410.553 236.781 440.527 297.891C470.5 359 616.529 452.899 736 335C749.311 321.865 794 281.5 804.861 212.328C812.932 160.918 819.795 54.5943 930.62 12.9365C1041.44 -28.7213 1201.79 47.4188 1201.79 212.328C1201.79 366.812 1413.22 456.445 1535.99 339.908C1553.15 323.61 1588.32 272.488 1588.32 213.388C1588.32 193.077 1591.68 172.22 1598.19 152" stroke="#009846" stroke-width="3" stroke-dasharray="6 6"/>
</svg>
